<svg xmlns="http://www.w3.org/2000/svg" version="1.1" xmlns:xlink="http://www.w3.org/1999/xlink" xmlns:svgjs="http://svgjs.dev/svgjs" width="128" height="128" viewBox="0 0 128 128"><g transform="matrix(0.8046875,0,0,0.8046875,12.70656769424054,3.9540069901315746)"><svg viewBox="0 0 81 95" data-background-color="#ffffff" preserveAspectRatio="xMidYMid meet" height="150" width="128" xmlns="http://www.w3.org/2000/svg" xmlns:xlink="http://www.w3.org/1999/xlink"><g id="tight-bounds" transform="matrix(1,0,0,1,-0.16244643916003554,-0.24049999999999727)"><svg viewBox="0 0 81.32489287832007 95.481" height="95.481" width="81.32489287832007"><g><svg viewBox="0 0 81.32489287832007 95.481" height="95.481" width="81.32489287832007"><g><svg viewBox="0 0 81.32489287832007 95.481" height="95.481" width="81.32489287832007"><g id="textblocktransform"><svg viewBox="0 0 81.32489287832007 95.481" height="95.481" width="81.32489287832007" id="textblock"><g><svg viewBox="0 0 81.32489287832007 95.481" height="95.481" width="81.32489287832007"><g><svg viewBox="0 0 81.32489287832007 95.481" height="95.481" width="81.32489287832007"><g><svg xmlns="http://www.w3.org/2000/svg" xmlns:xlink="http://www.w3.org/1999/xlink" version="1.1" x="0" y="0" viewBox="8.757 1.133999999999997 83.31199999999998 97.814" enable-background="new 0 0 100 100" xml:space="preserve" height="95.481" width="81.32489287832007" class="icon-icon-0" data-fill-palette-color="accent" id="icon-0"><path fill="#fe5200" d="M51.479 24.367c-0.336 0.463-0.529 0.572-1.052 0.572-0.528 0-0.639-0.106-0.989-0.566-0.215-0.279 0.203-0.6 0.418-0.321 0.25 0.327 0.235 0.36 0.571 0.36 0.343 0 0.39-0.032 0.623-0.354C51.259 23.771 51.687 24.082 51.479 24.367zM60.134 27.641l1.395-0.132c0.351-0.033 0.399 0.492 0.05 0.525l-1.003 0.095 0.246 0.102c0.324 0.135 0.123 0.622-0.202 0.487l-0.794-0.329c-0.276-0.115-0.17-0.488 0.07-0.51C59.903 27.765 59.981 27.656 60.134 27.641zM41.073 28.39l-0.793 0.329c-0.323 0.135-0.526-0.353-0.2-0.487l0.245-0.102-1.004-0.095c-0.35-0.033-0.299-0.559 0.051-0.525l1.395 0.132c0.152 0.015 0.229 0.125 0.237 0.239C41.244 27.902 41.353 28.274 41.073 28.39zM62.87 36.337c0.214-0.843 0.428-1.742 0.642-2.701 0.013-0.037 0.037-0.104 0.037-0.104 0.011-0.024 0.022-0.047 0.035-0.068 0.073-0.134 0.224-0.233 0.464-0.233 1.514 0 1.814-0.516 2.082-1.235 0.393-1.056 0.555-1.843 1.409-2.685 0.019-0.017 0.034-0.032 0.052-0.045 0.016-0.018 0.033-0.036 0.053-0.053 0.914-0.841 1.299-2.24 1.2-3.351-0.06-0.678-0.284-1.126-0.532-1.305-0.164-0.119-0.433-0.186-0.898 0.102-0.633 0.384-2.324 1.038-2.621 1.653-0.03 0.062-0.064 0.113-0.104 0.157-0.213 0.533-0.414 0.938-0.599 1.156-0.446 0.533-1.036 0.34-1.161-0.3l0.324-2.805c0.203-1.69-0.284-3.277-0.995-4.768 0.243-0.67 1.327-3.05 1.3-3.785-0.033-0.909-1.224-3.971-1.486-4.813-0.424-1.349-2.309-0.192-3 0.182-1.84 0.993-4.158 2.603-6.521 3.631-0.51 0.222-1.609 0.868-2.197 0.868-0.171 0-0.334-0.044-0.479-0.097-0.566-0.204-1.097-0.531-1.647-0.771-2.363-1.028-4.682-2.638-6.523-3.631-0.69-0.374-2.574-1.531-2.997-0.182-0.265 0.842-1.454 3.904-1.487 4.813-0.027 0.735 1.057 3.114 1.301 3.785-0.712 1.491-1.199 3.077-0.996 4.768l0.324 2.805c0 0-0.033 0.171-0.085 0.272-0.511 0.987-1.288-0.237-1.501-0.69-0.107-0.227-0.217-0.493-0.329-0.797-0.372-0.563-1.942-1.083-2.55-1.459-0.525-0.327-0.809-0.209-0.998-0.001-0.68 0.746-0.652 3.24 0.799 4.579 0.988 0.924 1.086 1.748 1.545 2.89 0.254 0.637 0.646 1.117 2.098 1.117 0.023 0.001 0.047 0.004 0.066 0.008 0.17 0.02 0.329 0.135 0.405 0.394 0.213 0.951 0.426 1.844 0.638 2.681-0.332-0.078-0.664-0.167-0.99-0.266-0.151-0.613-0.303-1.255-0.455-1.929-1.592-0.074-2.225-0.747-2.596-1.671-0.391-0.976-0.492-1.796-1.316-2.563-1.725-1.583-1.951-4.643-0.854-5.844 0.911-1.001 1.891-0.23 2.805 0.186 0.312 0.142 0.627 0.276 0.932 0.431-0.637-2.133-1.361-5.242-2.238-9.01-1.271-5.476-1.998-9.229 6.592-11.286 2.028-0.486 3.664-0.788 5.367-1.913 2.038-1.345 2.973-1.246 5.192-1.32 3.267 0.111 3.077 0.114 5.991 1.812 1.164 0.678 3.414 1.136 4.604 1.421 8.59 2.057 7.863 5.81 6.592 11.286-0.125 0.539-1.219 5.691-2.279 9.113 0.547-0.304 1.129-0.538 1.66-0.864 0.683-0.423 1.36-0.461 1.9-0.069 0.562 0.406 0.834 1.176 0.9 1.954 0.115 1.319-0.316 3.015-1.484 4.086l-0.054 0.047-0.03 0.033c-0.715 0.703-0.865 1.464-1.197 2.357-0.365 0.982-0.938 1.743-2.652 1.814-0.153 0.685-0.307 1.335-0.459 1.955C63.53 36.174 63.2 36.261 62.87 36.337zM46.262 48.305c-2.35-2.979-2.626-5.203-2.626-5.203 4.143 5.847 5.723 0.874 5.745-1.971 0.354-0.015 0.726-0.046 1.106-0.046 0.32 0 0.635 0.022 0.938 0.038 0.021 2.843 1.6 7.832 5.746 1.979 0 0-0.277 2.224-2.627 5.203-1.996 2.53-4.143 3.53-4.143 3.53S48.259 50.835 46.262 48.305zM53.413 40.255c-0.477 0.291-0.994 0.353-1.48 0.354-0.453 0.002-0.939-0.053-1.445-0.053-0.502 0-0.985 0.055-1.438 0.053-0.484-0.002-0.999-0.064-1.475-0.354-0.51-0.312-0.043-1.077 0.469-0.765 0.271 0.166 0.592 0.222 1.01 0.224 0.45 0.002 0.934-0.053 1.434-0.053 0.502 0 0.988 0.055 1.44 0.053 0.423-0.002 0.746-0.059 1.017-0.224C53.455 39.178 53.923 39.944 53.413 40.255zM62.362 31.012c-1.029 0.84-1.905 1.966-2.551 3.293-0.263 0.538-1.067 0.145-0.809-0.393 0.697-1.433 1.65-2.666 2.791-3.596C62.259 29.938 62.825 30.635 62.362 31.012zM67.164 26.825c0.579 0.144 0.364 1.014-0.216 0.871-0.401-0.099-0.773 0.048-1.354 1.112 0.146 0.179 0.188 0.485 0.09 0.832-0.154 0.537-0.594 0.981-0.978 0.951-0.843-0.065-0.306-1.318-0.254-1.438C65.075 27.575 65.921 26.517 67.164 26.825zM33.558 26.825c1.242-0.307 2.088 0.75 2.711 2.329 0.051 0.12 0.588 1.372-0.254 1.438-0.386 0.03-0.824-0.415-0.979-0.951-0.1-0.347-0.057-0.653 0.089-0.832-0.578-1.063-0.951-1.211-1.353-1.112C33.19 27.839 32.978 26.968 33.558 26.825zM45.868 31.712c0.385-0.414 0.854-0.778 1.388-1.081 0.521-0.295 0.964 0.485 0.442 0.78-0.463 0.263-0.857 0.571-1.174 0.911C46.116 32.761 45.461 32.149 45.868 31.712zM54.196 32.323c-0.316-0.34-0.711-0.648-1.174-0.911-0.521-0.295-0.076-1.076 0.442-0.78 0.533 0.303 1.002 0.667 1.388 1.081C55.261 32.149 54.604 32.761 54.196 32.323zM62.083 23.663c0.535 1.301 0.523 1.505-0.73 0.867-2.853-1.451-8.211 1.297-9.058 0.005-0.396-0.603 0.03-1.22 0.813-1.22C54.994 23.315 60.522 19.87 62.083 23.663zM55.692 26.517c0-0.118 0.017-0.232 0.047-0.34-0.377 0.049-0.608 0.115-0.764 0.19-0.316 0.153-0.477 0.518-0.686 0.781-0.372 0.468-1.074-0.091-0.702-0.559 0.153-0.192 0.255-0.365 0.371-0.515 0.765-0.988 2.636-0.881 3.677-0.881 1.475 0 2.495 0.428 3.037 1.378 0.296 0.519-0.482 0.964-0.779 0.444-0.271-0.478-0.775-0.818-1.748-0.904 0.043 0.127 0.066 0.264 0.066 0.406 0 0.696-0.562 1.26-1.26 1.26C56.258 27.777 55.692 27.213 55.692 26.517zM38.86 23.663c1.562-3.793 7.09-0.347 8.975-0.347 0.783 0 1.21 0.617 0.814 1.22-0.849 1.292-6.205-1.456-9.059-0.005C38.338 25.167 38.327 24.964 38.86 23.663zM42.731 26.517c0-0.142 0.022-0.278 0.066-0.406-0.973 0.086-1.475 0.427-1.747 0.904-0.297 0.52-1.077 0.075-0.78-0.444 0.543-0.951 1.562-1.378 3.039-1.378 1.039 0 2.911-0.107 3.676 0.881 0.117 0.15 0.217 0.322 0.369 0.515 0.373 0.468-0.328 1.027-0.701 0.559-0.209-0.263-0.367-0.627-0.686-0.781-0.154-0.075-0.386-0.141-0.763-0.19 0.03 0.108 0.046 0.222 0.046 0.34 0 0.696-0.564 1.26-1.26 1.26C43.294 27.777 42.731 27.213 42.731 26.517zM38.503 31.012c-0.464-0.377 0.104-1.073 0.566-0.695 1.141 0.93 2.094 2.163 2.789 3.596 0.264 0.538-0.545 0.93-0.806 0.393C40.407 32.978 39.532 31.852 38.503 31.012zM50.468 33.915c0.207-0.002 0.898-0.02 1.152-0.065 0.482-0.085 0.973-0.463 1.009-0.491 0.146-0.111 0.281-0.179 0.509-0.229 0.538-0.117 0.975 0.22 1.062 0.332 0.299 0.371 0.135 0.739-0.342 0.739h-0.447c-0.741 0-1.104 0.432-1.932 0.647 2.664 0.343 3.727 1.991 8.096 2.329 3.096 0.239 8.199-1.522 9.393-3.478-0.854 2.603-5.389 5.377-11.484 5.298-2.812-0.037-2.724-0.908-4.627-0.939h-2.385H48.03c-1.902 0.032-1.812 0.903-4.627 0.939-6.096 0.079-10.633-2.695-11.483-5.298 1.192 1.956 6.297 3.717 9.394 3.478 4.387-0.339 5.438-2 8.127-2.333-0.817-0.217-1.181-0.643-1.916-0.643h-0.447c-0.477 0-0.641-0.368-0.342-0.739 0.088-0.112 0.523-0.449 1.062-0.332 0.229 0.05 0.363 0.117 0.509 0.229 0.037 0.028 0.522 0.438 1.01 0.491C49.726 33.895 50.26 33.913 50.468 33.915zM61.258 20.718c0 0-0.015-0.021-0.045-0.055-0.291-0.327-0.798-0.486-1.21-0.547-1.02-0.15-2.807 0.055-5.797 1.594-0.27 0.139-0.477-0.265-0.207-0.403 1.354-0.696 5.9-2.8 7.554-0.945 0.065 0.074 0.095 0.122 0.095 0.122C61.803 20.742 61.415 20.977 61.258 20.718zM61.257 19.231c0 0-0.008-0.014-0.027-0.036-0.938-1.123-3.607-0.387-4.551-0.057-0.285 0.101-0.438-0.328-0.15-0.428 1.217-0.426 3.951-1.122 5.051 0.193 0.047 0.057 0.068 0.093 0.068 0.093C61.803 19.256 61.415 19.491 61.257 19.231zM39.79 20.482c0.088-0.145 1.568-2.306 7.646 0.824 0.271 0.138 0.062 0.542-0.207 0.403-1.27-0.653-5.09-2.457-6.812-1.219-0.086 0.062-0.181 0.138-0.24 0.227C40.022 20.977 39.634 20.742 39.79 20.482zM39.79 18.997c0.064-0.109 1.13-1.685 5.119-0.286 0.285 0.1 0.135 0.529-0.149 0.428-0.944-0.33-3.612-1.066-4.553 0.057-0.021 0.022-0.028 0.036-0.028 0.036C40.022 19.491 39.634 19.256 39.79 18.997zM44.147 46.87l0.037 5.147 3.239-1.75c0.235 0.221 0.476 0.434 0.718 0.633l-1.939 1.047c0.953 0.477 1.691 1.004 1.984 1.494 0.49 0.82 1.09 0.346 2.217 0.338 1.127 0.008 1.727 0.482 2.217-0.338 0.292-0.49 1.031-1.018 1.984-1.494l-1.914-1.035c0.24-0.197 0.479-0.41 0.717-0.631l3.217 1.737 0.038-5.132c-0.244 0.155-0.489 0.305-0.733 0.448 0.372-0.553 0.703-1.118 0.977-1.68 0.715-0.488 1.404-1.013 2.029-1.547 1.346-1.151 2.309-2.287 2.6-3.155l0.119-0.36c0.16-0.495 0.324-1.02 0.486-1.575 0.342-0.086 0.682-0.182 1.018-0.287-0.217 0.762-0.434 1.469-0.648 2.132l-0.124 0.373c-0.374 1.12-1.508 2.392-2.866 3.554l-0.115 0.099v1.425c0.105-0.07 0.252-0.067 0.451 0.048l5.869 3.363c0 0 0.047 0.028 0.116 0.08 0.347 0.249 0.629 0.595 0.792 0.991l0.09 0.277c5.374 2.223 9.672 4.014 15.742 4.014 2.503 0 3.979 2.421 4.469 6.05 0 0 4.77 35.067 5.135 37.812H8.757c0.364-2.744 5.137-37.812 5.137-37.812 0.488-3.629 1.965-6.05 4.467-6.05 6.07 0 10.369-1.791 15.742-4.014l0.092-0.277c0.166-0.408 0.516-0.841 0.906-1.071l5.87-3.363c0.2-0.115 0.347-0.118 0.451-0.048V44.9c-1.399-1.165-2.593-2.468-3.008-3.7-0.255-0.762-0.511-1.589-0.767-2.492 0.33 0.104 0.668 0.2 1.016 0.286 0.201 0.685 0.402 1.323 0.601 1.916l0.013 0.04c0.444 1.333 2.401 3.183 4.629 4.703 0.271 0.555 0.595 1.113 0.961 1.658C44.632 47.172 44.392 47.025 44.147 46.87zM43.14 50.806l0.139 0.037-0.03-4.566c-0.312-0.213-0.622-0.436-0.931-0.668V50c-0.198-0.055-0.396-0.109-0.59-0.158l-0.308-0.08c-0.205-0.053-0.405-0.102-0.601-0.146-0.006-0.495-0.012-0.967-0.014-1.415l-0.029-0.695-5.229 2.996c-0.218 0.158-0.408 0.352-0.516 0.604L31.716 61.31c-0.429 1.32 0.508 1.707 1.051 1.799 0.307 0.056 6.829 1.621 6.829 1.621 0.554 0.132 0.563 0.716 0.015 0.867 0 0-9.744 2.715-10.576 2.957-0.52 0.15-0.695 0.693-0.473 1.133 2.223 4.49 12.239 23.824 21.248 27.849-5.146-6.433-7.486-22.44-8.438-35.476 0.29-0.047 0.599-0.104 0.92-0.176 0.186 2.57 0.428 5.353 0.747 8.193 1.179 10.488 3.375 21.643 7.371 26.752 5.149-6.566 7.256-22.99 8.114-34.941 0.319 0.068 0.627 0.127 0.916 0.174C58.489 75.099 56.153 91.103 51 97.522c9.019-4.012 19.035-23.346 21.259-27.836 0.223-0.438 0.044-0.981-0.473-1.133-0.833-0.242-10.578-2.957-10.578-2.957-0.548-0.151-0.537-0.736 0.016-0.867 0 0 6.523-1.565 6.829-1.621 0.544-0.092 1.479-0.479 1.05-1.799l-3.315-10.207c-0.106-0.252-0.298-0.445-0.515-0.605l-5.229-2.996-0.031 0.704c-0.004 0.445-0.007 0.913-0.014 1.403-0.194 0.045-0.395 0.094-0.6 0.146l-0.31 0.078c-0.192 0.051-0.39 0.104-0.588 0.159v-4.391c-0.31 0.234-0.624 0.464-0.944 0.687l-0.031 4.552 0.14-0.037c0.368-0.098 3.039-0.849 4.164-1.033 2.401-0.333 1.308 12.066-1.397 11.884-1.064-0.09-2.257-0.371-2.712-0.49-2.226-0.59-4.534-1.652-5.103-2.604-0.49-0.818-1.09-0.344-2.217-0.336-1.127-0.008-1.727-0.482-2.217 0.336-0.566 0.951-2.875 2.014-5.103 2.604-0.455 0.119-1.647 0.4-2.711 0.49-2.705 0.182-3.802-12.217-1.399-11.884C40.101 49.956 42.771 50.708 43.14 50.806zM49.844 61.181c0-0.309 0.249-0.559 0.558-0.559 0.31 0 0.56 0.25 0.56 0.559 0 0.308-0.25 0.558-0.56 0.558C50.093 61.738 49.844 61.487 49.844 61.181zM49.844 71.604c0-0.307 0.249-0.559 0.558-0.559 0.31 0 0.56 0.252 0.56 0.559 0 0.309-0.25 0.559-0.56 0.559C50.093 72.163 49.844 71.913 49.844 71.604zM49.844 82.03c0-0.309 0.249-0.559 0.558-0.559 0.31 0 0.56 0.25 0.56 0.559s-0.25 0.559-0.56 0.559C50.093 82.589 49.844 82.339 49.844 82.03zM49.844 92.454c0-0.309 0.249-0.559 0.558-0.559 0.31 0 0.56 0.25 0.56 0.559s-0.25 0.559-0.56 0.559C50.093 93.013 49.844 92.763 49.844 92.454z" data-fill-palette-color="accent"></path></svg></g></svg></g></svg></g></svg></g></svg></g></svg></g><defs></defs></svg><rect width="81.32489287832007" height="95.481" fill="none" stroke="none" visibility="hidden"></rect></g></svg></g></svg>